<?xml version="1.0" encoding="UTF-8"?>
<svg width="16px" height="16px" viewBox="-1 0 14 16" version="1.1" xmlns="http://www.w3.org/2000/svg" xmlns:xlink="http://www.w3.org/1999/xlink">
    <!-- Generator: Sketch 51.2 (57519) - http://www.bohemiancoding.com/sketch -->
    <title>Icons / Site tree / Page data</title>
    <desc>Created with Sketch.</desc>
    <defs></defs>
    <g id="Icons-/-Site-tree-/-Page-data" stroke="none" stroke-width="1" fill="none" fill-rule="evenodd">
        <path d="M8.77976058,0.0010039918 C8.91369845,-0.00749457102 9.05310192,0.0375956615 9.16397572,0.150201865 L12.8562834,3.90020187 C12.9649038,4.0105194 13.0083387,4.14746853 13,4.27902199 L13,14.501004 C13,15.3294311 12.3284271,16.001004 11.5,16.001004 L1.5,16.001004 C0.671572875,16.001004 1.66533454e-16,15.3294311 0,14.501004 L0,1.50100399 C-8.32667268e-17,0.672576867 0.671572875,0.0010039918 1.5,0.0010039918 L8.77976058,0.0010039918 Z M12,4.75100399 L9.80769231,4.75100399 C8.97926518,4.75100399 8.30769231,4.07943112 8.30769231,3.25100399 L8.30769231,1.00100399 L1.5,1.00100399 C1.22385763,1.00100399 1,1.22486162 1,1.50100399 L1,14.501004 C1,14.7771464 1.22385763,15.001004 1.5,15.001004 L11.5,15.001004 C11.7761424,15.001004 12,14.7771464 12,14.501004 L12,4.75100399 Z M9.30769231,1.72146896 L9.30769231,3.25100399 C9.30769231,3.52714637 9.53154993,3.75100399 9.80769231,3.75100399 L11.3060037,3.75100399 L9.30769231,1.72146896 Z" id="Path-2" fill="#6F84A7" fill-rule="nonzero"></path>
        <path d="M6.97727273,9.31562049 L9.64644661,6.64644661 C9.84170876,6.45118446 10.1582912,6.45118446 10.3535534,6.64644661 C10.5488155,6.84170876 10.5488155,7.15829124 10.3535534,7.35355339 L7.33082612,10.3762807 C7.13556397,10.5715428 6.81898148,10.5715428 6.62371934,10.3762807 L5.38636364,9.13892496 L3.35355339,11.1717352 C3.15829124,11.3669974 2.84170876,11.3669974 2.64644661,11.1717352 C2.45118446,10.9764731 2.45118446,10.6598906 2.64644661,10.4646284 L5.03281025,8.07826479 C5.22807239,7.88300265 5.54465488,7.88300265 5.73991703,8.07826479 L6.97727273,9.31562049 Z" id="Shape" fill="#6F84A7" fill-rule="nonzero"></path>
        <path d="M8.09090909,7.5 C7.81476672,7.5 7.59090909,7.27614237 7.59090909,7 C7.59090909,6.72385763 7.81476672,6.5 8.09090909,6.5 L10,6.5 C10.2761424,6.5 10.5,6.72385763 10.5,7 L10.5,8.90909091 C10.5,9.18523328 10.2761424,9.40909091 10,9.40909091 C9.72385763,9.40909091 9.5,9.18523328 9.5,8.90909091 L9.5,7.5 L8.09090909,7.5 Z" id="Shape" fill="#6F84A7" fill-rule="nonzero"></path>
    </g>
</svg>
